<svg width="40" height="40" viewBox="0 0 40 40" fill="none" xmlns="http://www.w3.org/2000/svg">
<path d="M39 19.9935C39 30.4568 30.4682 39 20.0063 39C9.5436 39 1 30.4559 1 19.9935C1 9.53176 9.54275 1 20.0063 1C30.4691 1 39 9.53095 39 19.9935Z" stroke="black" stroke-width="2"/>
<path fill-rule="evenodd" clip-rule="evenodd" d="M21.6324 14.4991C21.6324 13.7177 22.0171 13.3974 22.3754 13.3974C22.7346 13.3974 24.7581 13.3974 24.7581 13.3974V9.87531H21.5299C18.0849 9.87531 17.2139 12.642 17.2139 14.294V15.8569H15.2416V18.5335V19.8017H17.2139C17.2139 24.5537 17.2139 30.125 17.2139 30.125H21.6324C21.6324 30.125 21.6324 24.5537 21.6324 19.8017H24.3223L24.4502 18.2648L24.6938 15.857H21.6324V14.4991Z" fill="black"/>
</svg>
