<svg width="41" height="41" viewBox="0 0 41 41" fill="none" xmlns="http://www.w3.org/2000/svg">
<path d="M20.6292 1.71515C31.0931 1.71515 39.6357 10.2371 39.6357 20.7021C39.6357 31.1687 31.0914 39.7151 20.6292 39.7151C10.1678 39.7151 1.63574 31.1696 1.63574 20.7021C1.63574 10.2362 10.1661 1.71515 20.6292 1.71515Z" stroke="black" stroke-width="2"/>
<path fill-rule="evenodd" clip-rule="evenodd" d="M20.6425 14.4819C17.1318 14.4819 14.2749 17.3263 14.2749 20.8367C14.2749 24.3602 17.1317 27.2045 20.6425 27.2045C24.153 27.2045 26.9974 24.3602 26.9974 20.8367C26.9974 17.3263 24.153 14.4819 20.6425 14.4819ZM20.6425 25.8847C17.8622 25.8847 15.6071 23.6302 15.6071 20.8367C15.6071 18.0568 17.8622 15.8017 20.6425 15.8017C23.4225 15.8017 25.6781 18.0568 25.6781 20.8367C25.6781 23.6301 23.4225 25.8847 20.6425 25.8847Z" fill="black"/>
<path fill-rule="evenodd" clip-rule="evenodd" d="M25.8444 10.9972H15.4406C12.8907 10.9972 10.7257 13.0726 10.7257 15.6481V26.0383C10.7257 28.6011 12.8907 30.4328 15.4406 30.4328H25.8444C28.4196 30.4328 30.5589 28.601 30.5589 26.0383V15.6481C30.5589 13.0726 28.4196 10.9972 25.8444 10.9972ZM29.4189 26.0383C29.4189 27.9734 27.7791 29.28 25.8444 29.28H15.4406C13.5189 29.28 11.9558 27.9734 11.9558 26.0383V15.6481C11.9558 13.7134 13.5189 12.15 15.4406 12.15H25.8444C27.7792 12.15 29.4189 13.7134 29.4189 15.6481V26.0383Z" fill="black"/>
<path fill-rule="evenodd" clip-rule="evenodd" d="M26.8822 13.6233C26.3186 13.6233 25.8574 14.0719 25.8574 14.6355C25.8574 15.2124 26.3186 15.6608 26.8822 15.6608C27.4459 15.6608 27.9072 15.2123 27.9072 14.6355C27.9072 14.0719 27.4459 13.6233 26.8822 13.6233Z" fill="black"/>
</svg>
