<svg width="158" height="61" viewBox="0 0 158 61" fill="none" xmlns="http://www.w3.org/2000/svg">
<path d="M3.96486 26.9223C3.83476 26.9223 3.71767 26.8838 3.61359 26.8069C3.53553 26.7043 3.4965 26.5889 3.4965 26.4607V0.461525C3.4965 0.333324 3.53553 0.230763 3.61359 0.153842C3.71767 0.0512806 3.83476 0 3.96486 0H8.53134C8.66144 0 8.76552 0.0512806 8.84358 0.153842C8.94766 0.230763 8.9997 0.333324 8.9997 0.461525V22.0762C8.9997 22.2044 9.06475 22.2685 9.19485 22.2685H19.6548C19.7849 22.2685 19.889 22.3198 19.9671 22.4224C20.0712 22.4993 20.1232 22.6019 20.1232 22.7301V26.4607C20.1232 26.5889 20.0712 26.7043 19.9671 26.8069C19.889 26.8838 19.7849 26.9223 19.6548 26.9223H3.96486Z" fill="black"/>
<path d="M25.0028 26.9223C24.8727 26.9223 24.7556 26.8838 24.6516 26.8069C24.5735 26.7043 24.5345 26.5889 24.5345 26.4607V0.461525C24.5345 0.333324 24.5735 0.230763 24.6516 0.153842C24.7556 0.0512806 24.8727 0 25.0028 0H29.5693C29.6994 0 29.8035 0.0512806 29.8816 0.153842C29.9856 0.230763 30.0377 0.333324 30.0377 0.461525V26.4607C30.0377 26.5889 29.9856 26.7043 29.8816 26.8069C29.8035 26.8838 29.6994 26.9223 29.5693 26.9223H25.0028Z" fill="black"/>
<path d="M36.169 26.9223C36.0389 26.9223 35.9218 26.8838 35.8178 26.8069C35.7397 26.7043 35.7007 26.5889 35.7007 26.4607V0.461525C35.7007 0.333324 35.7397 0.230763 35.8178 0.153842C35.9218 0.0512806 36.0389 0 36.169 0H40.7355C40.8656 0 40.9697 0.0512806 41.0477 0.153842C41.1518 0.230763 41.2039 0.333324 41.2039 0.461525V10.692C41.2039 10.7689 41.2299 10.8202 41.2819 10.8458C41.36 10.8715 41.412 10.8458 41.438 10.7689L48.4244 0.307683C48.5545 0.102561 48.7366 0 48.9708 0H54.0056C54.1878 0 54.3049 0.0512806 54.3569 0.153842C54.435 0.256403 54.422 0.384604 54.3179 0.538445L47.0974 11.5766C47.0713 11.6535 47.0713 11.7432 47.0974 11.8458L54.7472 26.3838C54.7992 26.4864 54.8253 26.5633 54.8253 26.6146C54.8253 26.8197 54.6822 26.9223 54.3959 26.9223H49.4001C49.1659 26.9223 48.9838 26.8069 48.8537 26.5761L43.3115 16.038C43.2855 15.961 43.2464 15.9226 43.1944 15.9226C43.1423 15.9226 43.0903 15.961 43.0383 16.038L41.2819 18.5379C41.2299 18.6405 41.2039 18.7174 41.2039 18.7687V26.4607C41.2039 26.5889 41.1518 26.7043 41.0477 26.8069C40.9697 26.8838 40.8656 26.9223 40.7355 26.9223H36.169Z" fill="black"/>
<path d="M75.6522 4.19218C75.6522 4.32038 75.6002 4.43576 75.4961 4.53832C75.4181 4.61524 75.314 4.6537 75.1839 4.6537H64.7239C64.5938 4.6537 64.5287 4.7178 64.5287 4.84601V10.8458C64.5287 10.974 64.5938 11.0381 64.7239 11.0381H71.2419C71.372 11.0381 71.476 11.0894 71.5541 11.192C71.6582 11.2689 71.7102 11.3714 71.7102 11.4996V15.2303C71.7102 15.3585 71.6582 15.4739 71.5541 15.5764C71.476 15.6534 71.372 15.6918 71.2419 15.6918H64.7239C64.5938 15.6918 64.5287 15.7559 64.5287 15.8841V22.0762C64.5287 22.2044 64.5938 22.2685 64.7239 22.2685H75.1839C75.314 22.2685 75.4181 22.3198 75.4961 22.4224C75.6002 22.4993 75.6522 22.6019 75.6522 22.7301V26.4607C75.6522 26.5889 75.6002 26.7043 75.4961 26.8069C75.4181 26.8838 75.314 26.9223 75.1839 26.9223H59.4939C59.3638 26.9223 59.2467 26.8838 59.1426 26.8069C59.0646 26.7043 59.0255 26.5889 59.0255 26.4607V0.461525C59.0255 0.333324 59.0646 0.230763 59.1426 0.153842C59.2467 0.0512806 59.3638 0 59.4939 0H75.1839C75.314 0 75.4181 0.0512806 75.4961 0.153842C75.6002 0.230763 75.6522 0.333324 75.6522 0.461525V4.19218Z" fill="black"/>
<path d="M52.6207 34.2316C52.6207 34.1034 52.6598 34.0008 52.7378 33.9239C52.8419 33.8214 52.959 33.7701 53.0891 33.7701H57.6166C57.7467 33.7701 57.8507 33.8214 57.9288 33.9239C58.0329 34.0008 58.0849 34.1034 58.0849 34.2316V60.2308C58.0849 60.359 58.0329 60.4744 57.9288 60.5769C57.8507 60.6539 57.7467 60.6923 57.6166 60.6923H52.8549C52.5947 60.6923 52.4126 60.5769 52.3085 60.3462L44.8538 44.6928C44.8018 44.6159 44.7497 44.5774 44.6977 44.5774C44.6457 44.5774 44.6196 44.6287 44.6196 44.7313L44.6587 60.2308C44.6587 60.359 44.6066 60.4744 44.5025 60.5769C44.4245 60.6539 44.3204 60.6923 44.1903 60.6923H39.6628C39.5327 60.6923 39.4157 60.6539 39.3116 60.5769C39.2335 60.4744 39.1945 60.359 39.1945 60.2308V34.2316C39.1945 34.1034 39.2335 34.0008 39.3116 33.9239C39.4157 33.8214 39.5327 33.7701 39.6628 33.7701H44.3855C44.6457 33.7701 44.8278 33.8854 44.9319 34.1162L52.3866 49.7696C52.4386 49.8465 52.4906 49.885 52.5427 49.885C52.5947 49.885 52.6207 49.8337 52.6207 49.7311V34.2316Z" fill="black"/>
<path d="M78.2182 60.6923C77.932 60.6923 77.7498 60.5641 77.6718 60.3077L76.7741 56.5386C76.7481 56.436 76.683 56.3848 76.5789 56.3848H69.2804C69.1763 56.3848 69.1112 56.436 69.0852 56.5386L68.1875 60.3077C68.1095 60.5641 67.9403 60.6923 67.6802 60.6923H62.9575C62.6193 60.6923 62.4892 60.5257 62.5672 60.1923L69.5926 34.1547C69.6707 33.8983 69.8528 33.7701 70.139 33.7701H75.7984C76.0846 33.7701 76.2667 33.8983 76.3448 34.1547L83.3701 60.1923L83.4092 60.3462C83.4092 60.5769 83.2661 60.6923 82.9798 60.6923H78.2182ZM70.139 51.9618C70.113 52.0387 70.126 52.1028 70.1781 52.1541C70.2301 52.1798 70.2821 52.1926 70.3342 52.1926H75.4861C75.5381 52.1926 75.5902 52.1798 75.6422 52.1541C75.6943 52.1028 75.7073 52.0387 75.6813 51.9618L72.9882 40.8083C72.9622 40.7058 72.9232 40.6545 72.8711 40.6545C72.8191 40.6545 72.78 40.7058 72.754 40.8083L70.139 51.9618Z" fill="black"/>
<path d="M101.984 33.7701C102.114 33.7701 102.218 33.8214 102.296 33.9239C102.4 34.0008 102.452 34.1034 102.452 34.2316V38.0007C102.452 38.1289 102.4 38.2443 102.296 38.3469C102.218 38.4238 102.114 38.4622 101.984 38.4622H96.0512C95.9211 38.4622 95.856 38.5263 95.856 38.6545V60.2308C95.856 60.359 95.804 60.4744 95.6999 60.5769C95.6218 60.6539 95.5178 60.6923 95.3877 60.6923H90.8212C90.6911 60.6923 90.574 60.6539 90.4699 60.5769C90.3918 60.4744 90.3528 60.359 90.3528 60.2308V38.6545C90.3528 38.5263 90.2878 38.4622 90.1577 38.4622H84.4203C84.2902 38.4622 84.1731 38.4238 84.069 38.3469C83.9909 38.2443 83.9519 38.1289 83.9519 38.0007V34.2316C83.9519 34.1034 83.9909 34.0008 84.069 33.9239C84.1731 33.8214 84.2902 33.7701 84.4203 33.7701H101.984Z" fill="black"/>
<path d="M107.579 60.6923C107.449 60.6923 107.332 60.6539 107.228 60.5769C107.15 60.4744 107.111 60.359 107.111 60.2308V34.2316C107.111 34.1034 107.15 34.0008 107.228 33.9239C107.332 33.8214 107.449 33.7701 107.579 33.7701H112.146C112.276 33.7701 112.38 33.8214 112.458 33.9239C112.562 34.0008 112.614 34.1034 112.614 34.2316V60.2308C112.614 60.359 112.562 60.4744 112.458 60.5769C112.38 60.6539 112.276 60.6923 112.146 60.6923H107.579Z" fill="black"/>
<path d="M124.522 60.6923C124.236 60.6923 124.054 60.5641 123.975 60.3077L117.184 34.2701V34.1162C117.184 33.8854 117.327 33.7701 117.614 33.7701H122.57C122.857 33.7701 123.026 33.9111 123.078 34.1931L127.02 52.0772C127.046 52.1798 127.085 52.231 127.137 52.231C127.189 52.231 127.228 52.1798 127.254 52.0772L131.157 34.1931C131.209 33.9111 131.378 33.7701 131.664 33.7701H136.465C136.829 33.7701 136.972 33.9367 136.894 34.2701L130.025 60.3077C129.947 60.5641 129.765 60.6923 129.479 60.6923H124.522Z" fill="black"/>
<path d="M158 37.9622C158 38.0905 157.948 38.2058 157.844 38.3084C157.766 38.3853 157.662 38.4238 157.532 38.4238H147.072C146.942 38.4238 146.876 38.4879 146.876 38.6161V44.6159C146.876 44.7441 146.942 44.8082 147.072 44.8082H153.59C153.72 44.8082 153.824 44.8595 153.902 44.962C154.006 45.039 154.058 45.1415 154.058 45.2697V49.0004C154.058 49.1286 154.006 49.244 153.902 49.3465C153.824 49.4234 153.72 49.4619 153.59 49.4619H147.072C146.942 49.4619 146.876 49.526 146.876 49.6542V55.8463C146.876 55.9745 146.942 56.0386 147.072 56.0386H157.532C157.662 56.0386 157.766 56.0899 157.844 56.1925C157.948 56.2694 158 56.3719 158 56.5001V60.2308C158 60.359 157.948 60.4744 157.844 60.5769C157.766 60.6539 157.662 60.6923 157.532 60.6923H141.842C141.712 60.6923 141.594 60.6539 141.49 60.5769C141.412 60.4744 141.373 60.359 141.373 60.2308V34.2316C141.373 34.1034 141.412 34.0008 141.49 33.9239C141.594 33.8214 141.712 33.7701 141.842 33.7701H157.532C157.662 33.7701 157.766 33.8214 157.844 33.9239C157.948 34.0008 158 34.1034 158 34.2316V37.9622Z" fill="black"/>
<path d="M17.0218 40.616C18.5829 40.616 19.975 40.8981 21.1979 41.4621C22.4209 42.0006 23.3706 42.7698 24.0471 43.7698C24.7497 44.7441 25.1009 45.8594 25.1009 47.1158V60.2308C25.1009 60.359 25.0489 60.4744 24.9448 60.5769C24.8667 60.6539 24.7627 60.6923 24.6326 60.6923H20.0661C19.936 60.6923 19.8189 60.6539 19.7148 60.5769C19.6368 60.4744 19.5977 60.359 19.5977 60.2308V59.1539C19.5977 59.077 19.5717 59.0257 19.5197 59.0001C19.4676 58.9744 19.4156 59.0001 19.3635 59.077C18.3748 60.359 16.8396 61 14.758 61C12.9887 61 11.5055 60.5513 10.3086 59.6539C9.13773 58.7565 8.55229 57.2565 8.55229 55.154C8.55229 50.9747 11.2063 48.885 16.5144 48.885H19.4026C19.5327 48.885 19.5977 48.8209 19.5977 48.6927V47.8081C19.5977 47.0389 19.3635 46.4235 18.8952 45.962C18.4528 45.5005 17.8414 45.2697 17.0608 45.2697C16.4363 45.2697 15.9159 45.4107 15.4996 45.6928C15.0833 45.9748 14.8231 46.3594 14.719 46.8466C14.6409 47.103 14.4588 47.2312 14.1726 47.2312L9.44997 46.962C9.31987 46.962 9.20278 46.9235 9.0987 46.8466C9.02064 46.7697 8.99462 46.6671 9.02064 46.5389C9.17676 44.7697 9.98338 43.3467 11.4405 42.2698C12.9236 41.1673 14.784 40.616 17.0218 40.616ZM16.3973 56.8847C17.282 56.8847 18.0365 56.6412 18.661 56.154C19.2855 55.6668 19.5977 55.0258 19.5977 54.231V52.6156C19.5977 52.4874 19.5327 52.4233 19.4026 52.4233H17.2169C16.2542 52.4233 15.4996 52.6285 14.9532 53.0387C14.4068 53.449 14.1335 54.0387 14.1335 54.8079C14.1335 55.4745 14.3417 55.9873 14.758 56.3463C15.1743 56.7053 15.7208 56.8847 16.3973 56.8847Z" fill="#DF0000"/>
<path d="M0 59.2852H8.56752V60.6923H0V59.2852Z" fill="black"/>
<path d="M25.7026 59.2852H34.2701V60.6923H25.7026V59.2852Z" fill="black"/>
</svg>
