<svg width="320" height="320" viewBox="0 0 320 320" fill="none" xmlns="http://www.w3.org/2000/svg">
<path d="M165.76 86.736C165.76 86.736 171.36 91.968 179.36 98.688" stroke="black" stroke-miterlimit="10"/>
<path d="M174.906 150.333C174.906 150.333 205.27 238.029 174.906 289.389L178.141 298.506L152.058 287.469L155.322 214.509C155.322 214.509 134.72 168.845 136.755 160C138.79 151.155 139.258 138.24 139.258 138.24" fill="#EDEEEF"/>
<path d="M166.368 139.52C166.368 139.52 172.829 244.96 154.582 294.88L158.4 300.48H125.942C125.942 300.48 122.397 166.371 122.397 137.427L166.368 139.52Z" fill="#EDEEEF"/>
<path d="M157.485 57.9488V71.6512L140.512 75.8208V52.6976L157.485 48.528V57.9488Z" fill="#EDEEEF"/>
<path d="M147.898 62.688C148.149 62.688 148.352 62.4845 148.352 62.2336C148.352 61.9826 148.149 61.7792 147.898 61.7792C147.647 61.7792 147.443 61.9826 147.443 62.2336C147.443 62.4845 147.647 62.688 147.898 62.688Z" fill="black"/>
<path d="M154.867 62.688C155.118 62.688 155.322 62.4845 155.322 62.2336C155.322 61.9826 155.118 61.7792 154.867 61.7792C154.616 61.7792 154.413 61.9826 154.413 62.2336C154.413 62.4845 154.616 62.688 154.867 62.688Z" fill="black"/>
<path d="M152.822 64.9408V57.9488H156.326" stroke="black" stroke-miterlimit="10"/>
<path d="M147.043 57.9488H150.547" stroke="black" stroke-miterlimit="10"/>
<path d="M141.629 61.5328V63.9616C141 63.9607 140.396 63.7102 139.952 63.265C139.507 62.8198 139.258 62.2164 139.258 61.5872C139.258 61.5136 139.258 61.4432 139.258 61.3728C139.398 59.8976 141.629 60.0512 141.629 61.5328Z" fill="#EDEEEF"/>
<path d="M141.629 63.9616C141 63.9607 140.396 63.7102 139.952 63.265C139.507 62.8198 139.258 62.2163 139.258 61.5872" stroke="black" stroke-miterlimit="10"/>
<path d="M151.29 66.6656C150.653 66.6656 150.043 66.4127 149.593 65.9626C149.142 65.5125 148.89 64.9021 148.89 64.2656" stroke="#DF0000" stroke-miterlimit="10"/>
<path d="M157.485 71.6512L140.512 75.8208" stroke="black" stroke-miterlimit="10"/>
<path d="M152.822 64.9472L151.29 65.3248" stroke="black" stroke-miterlimit="10" stroke-linecap="round"/>
<path d="M141.629 61.1936C141.629 61.1936 143.792 57.248 143.898 55.488L144.486 57.9488C144.486 57.9488 148.486 56.7136 150.938 53.6736V56.8032C150.938 56.8032 155.658 55.808 156.874 52.6592V55.5936C156.874 55.5936 158.352 54.5792 158.726 53.0336" stroke="#DF0000" stroke-miterlimit="10"/>
<path d="M157.485 58.2592C157.485 58.2592 166.125 49.1104 154.413 46.5792C146.032 44.768 141.613 49.248 141.613 49.248C141.613 49.248 138.71 50.6336 137.536 52.9792C136.362 55.3248 135.882 61.3536 140.496 65.8336" stroke="#DF0000" stroke-miterlimit="10"/>
<path d="M122.397 100.358V137.427L174.906 150.333V109.053C174.906 101.94 172.521 95.0318 168.132 89.4338C163.744 83.8357 157.605 79.8708 150.698 78.1728C147.333 77.3466 143.825 77.2962 140.438 78.0254C137.052 78.7546 133.875 80.2442 131.149 82.3817C128.422 84.5192 126.218 87.2486 124.702 90.3635C123.185 93.4784 122.397 96.8973 122.397 100.362V100.358Z" fill="#DF0000"/>
<path d="M157.485 128.346C157.485 128.346 157.514 97.8176 174.906 97.6256C192.298 97.4336 186.24 77.5008 186.24 77.5008L214.746 83.9552C214.746 83.9552 219.43 111.29 195.418 119.475C183.146 123.664 188.397 152.224 188.397 152.224L156.867 148.573V144.371" fill="#EDEEEF"/>
<path d="M214.752 83.9552C214.752 83.9552 219.437 111.29 195.424 119.475C183.152 123.664 188.403 152.224 188.403 152.224" stroke="black" stroke-miterlimit="10"/>
<path d="M126.896 86.736C126.896 86.736 110.4 108.339 110.614 133.728C110.829 159.117 150.08 156.768 165.014 136.499C165.014 136.499 174.826 129.674 173.334 128.179C171.843 126.685 165.302 128.115 165.302 128.115C165.302 128.115 166.506 124.659 164.694 125.514C162.883 126.368 160.451 128.15 160.451 128.15L136.614 129.734L142.054 107.488" stroke="black" stroke-miterlimit="10"/>
<path d="M166.368 139.52C166.368 139.52 172.829 244.96 154.582 294.88" stroke="black" stroke-miterlimit="10"/>
<path d="M126.896 86.736C126.896 86.736 110.4 108.339 110.614 133.728C110.829 159.117 150.08 156.768 165.014 136.499C165.014 136.499 174.826 129.674 173.334 128.179C171.843 126.685 165.302 128.115 165.302 128.115C165.302 128.115 166.506 124.659 164.694 125.514C162.883 126.368 160.451 128.15 160.451 128.15L136.614 129.734L142.054 107.488" stroke="black" stroke-miterlimit="10"/>
<path d="M122.826 150.736V168.714C148.266 162.739 161.03 140.982 161.03 140.982C150.643 150.784 134.109 154.624 122.826 150.736Z" fill="black"/>
<path d="M183.52 146.688C183.52 146.688 201.92 151.808 205.6 143.328C209.28 134.848 202.72 111.488 202.72 111.488C202.72 111.488 204.64 107.328 203.68 106.208C202.72 105.088 201.76 106.208 201.76 106.208C201.76 106.208 200.24 98.848 197.92 99.408C195.6 99.968 193.978 112.915 193.101 121.946" stroke="black" stroke-miterlimit="10"/>
</svg>
