<svg width="320" height="320" viewBox="0 0 320 320" fill="none" xmlns="http://www.w3.org/2000/svg">
<path d="M241.856 257.776C230.336 183.382 162.88 151.107 162.88 151.107L134.784 165.622C133.795 165.622 140.051 192.272 140.051 192.272L181.667 210.707L220.218 270.31L249.536 260.176L241.856 257.776Z" fill="#EDEEEF"/>
<path d="M184.019 164.618C176.205 160.826 167.477 159.324 158.846 160.287C150.214 161.25 142.031 164.637 135.245 170.058C136.621 177.632 140.061 192.282 140.061 192.282L181.677 210.717L198.317 236.448C204.998 228.909 209.018 219.384 209.758 209.338C210.497 199.292 207.915 189.281 202.41 180.845C196.683 174.994 190.537 169.571 184.019 164.618Z" fill="black"/>
<path d="M205.581 194.47C204.227 156.422 158.861 150.333 158.861 150.333L106.346 137.427C106.346 137.427 97.6864 194.79 163.923 195.75L132.598 257.776L161.398 270.31L158.864 261.616C158.864 261.616 206.4 217.19 205.581 194.47Z" fill="#EDEEEF"/>
<path d="M106.346 137.427C106.346 137.427 97.6864 194.79 163.923 195.75L132.598 257.776" stroke="black" stroke-miterlimit="10"/>
<path d="M106.346 100.358V137.427L158.854 150.333V109.053C158.854 101.94 156.469 95.0322 152.081 89.4343C147.692 83.8364 141.554 79.8713 134.646 78.1728C131.282 77.3466 127.774 77.2962 124.387 78.0254C121 78.7546 117.824 80.2442 115.098 82.3817C112.371 84.5192 110.167 87.2486 108.65 90.3635C107.134 93.4784 106.346 96.8973 106.346 100.362V100.358Z" fill="#DF0000"/>
<path d="M121.83 57.9488V63.8624C121.828 66.0847 122.573 68.2433 123.944 69.9922C125.315 71.7411 127.233 72.9789 129.392 73.5072L138.806 75.8208V52.6976L130.979 50.7776C129.891 50.5109 128.757 50.4948 127.663 50.7308C126.568 50.9667 125.541 51.4484 124.66 52.1395C123.778 52.8306 123.066 53.7129 122.576 54.7199C122.085 55.7269 121.831 56.8321 121.83 57.952V57.9488Z" fill="#EDEEEF"/>
<path d="M121.83 63.8624C121.828 66.0847 122.573 68.2433 123.944 69.9922C125.315 71.7411 127.233 72.9789 129.392 73.5072L138.806 75.8208" stroke="black" stroke-miterlimit="10"/>
<path d="M131.421 62.688C131.672 62.688 131.875 62.4845 131.875 62.2336C131.875 61.9826 131.672 61.7792 131.421 61.7792C131.17 61.7792 130.966 61.9826 130.966 62.2336C130.966 62.4845 131.17 62.688 131.421 62.688Z" fill="black"/>
<path d="M124.448 62.688C124.699 62.688 124.902 62.4845 124.902 62.2336C124.902 61.9826 124.699 61.7792 124.448 61.7792C124.197 61.7792 123.994 61.9826 123.994 62.2336C123.994 62.4845 124.197 62.688 124.448 62.688Z" fill="black"/>
<path d="M126.493 64.9408V57.9488H122.989" stroke="black" stroke-miterlimit="10"/>
<path d="M132.275 57.9488H128.771" stroke="black" stroke-miterlimit="10"/>
<path d="M137.686 61.5328V63.9616C138.316 63.9616 138.92 63.7114 139.365 63.2661C139.811 62.8209 140.061 62.2169 140.061 61.5872C140.061 61.5136 140.061 61.4432 140.061 61.3728C139.917 59.8976 137.686 60.0512 137.686 61.5328Z" fill="#EDEEEF"/>
<path d="M137.686 63.9616C138.316 63.9616 138.92 63.7114 139.365 63.2661C139.811 62.8208 140.061 62.2169 140.061 61.5872" stroke="black" stroke-miterlimit="10"/>
<path d="M128.41 65.76C128.705 66.0535 129.104 66.2183 129.52 66.2183C129.936 66.2183 130.335 66.0535 130.63 65.76" stroke="#DF0000" stroke-miterlimit="10"/>
<path d="M126.493 64.9472L128.026 65.3248" stroke="black" stroke-miterlimit="10" stroke-linecap="round"/>
<path d="M121.472 60.6016C121.472 60.6016 125.693 58.4032 126.406 54.688C126.41 54.6597 126.424 54.6336 126.444 54.614C126.465 54.5944 126.492 54.5825 126.52 54.5803C126.549 54.578 126.577 54.5856 126.601 54.6017C126.624 54.6178 126.641 54.6415 126.65 54.6688C127.168 56.2688 129.312 60.5184 137.686 61.5328" stroke="black" stroke-miterlimit="10"/>
<path d="M121.83 62.7744C121.83 62.7744 117.632 60.9216 118.378 56.016C119.123 51.1104 133.523 37.7408 143.232 50.56C152.941 63.3792 168.992 87.5936 168.992 87.5936L158.4 89.2192C155.976 89.5909 153.501 89.4344 151.144 88.7603C148.786 88.0862 146.603 86.9105 144.742 85.3137C142.881 83.7169 141.388 81.7367 140.364 79.5089C139.34 77.2811 138.81 74.8582 138.81 72.4064V65.76" stroke="black" stroke-miterlimit="10"/>
<path d="M259.126 128.515H175.574L181.309 78.3904H264.858L259.126 128.515Z" fill="#EDEEEF"/>
<path d="M255.811 124.24H172.259L177.99 74.1152H261.542L255.811 124.24Z" stroke="black" stroke-miterlimit="10"/>
<path d="M219.75 143.242L221.923 124.24H208.56L206.387 143.242H219.75Z" fill="black"/>
<path d="M148.413 143.242H262.749" stroke="black" stroke-miterlimit="10"/>
<path d="M113.434 83.7152C113.434 83.7152 91.7888 101.491 86.3488 130.221C80.9088 158.95 124.045 152.045 144.589 143.59" stroke="black" stroke-miterlimit="10"/>
<path d="M109.229 128.515C109.229 128.515 158.029 119.875 161.389 141.258" stroke="black" stroke-miterlimit="10"/>
<path d="M146.17 83.7152C146.17 83.7152 161.485 99.52 165.523 128.515C165.523 128.515 181.056 129.05 181.677 141.258" stroke="black" stroke-miterlimit="10"/>
<path d="M104.4 93.0816C104.4 93.0816 97.4368 78.6304 91.6768 91.1104C85.9168 103.59 60.7488 185.83 87.3088 199.59C113.869 213.35 152.707 205.792 152.707 205.792" stroke="black" stroke-miterlimit="10"/>
<path d="M123.357 207.862V300.48H91.6768" stroke="black" stroke-miterlimit="10"/>
</svg>
