<svg width="320" height="320" viewBox="0 0 320 320" fill="none" xmlns="http://www.w3.org/2000/svg">
<path d="M54.6112 59.3504H163.302V176.083H54.6112V59.3504Z" fill="#EDEEEF"/>
<path d="M163.306 59.3504V176.083H54.6112" stroke="black" stroke-miterlimit="10"/>
<path d="M84.512 55.648H133.402V64.2592H84.512V55.648Z" fill="#DF0000"/>
<path d="M108.96 59.1648C110.793 59.1648 112.278 57.6791 112.278 55.8464C112.278 54.0137 110.793 52.528 108.96 52.528C107.127 52.528 105.642 54.0137 105.642 55.8464C105.642 57.6791 107.127 59.1648 108.96 59.1648Z" fill="#DF0000"/>
<path d="M84.512 55.648H133.402V64.2592H84.512V55.648Z" fill="#DF0000"/>
<path d="M133.405 55.648V64.2592H84.5152" stroke="black" stroke-miterlimit="10"/>
<path d="M108.96 59.1648C110.793 59.1648 112.278 57.6791 112.278 55.8464C112.278 54.0137 110.793 52.528 108.96 52.528C107.127 52.528 105.642 54.0137 105.642 55.8464C105.642 57.6791 107.127 59.1648 108.96 59.1648Z" fill="#DF0000"/>
<path d="M108.96 176.083V268.685" stroke="black" stroke-miterlimit="10"/>
<path d="M50.1312 268.685H167.786" stroke="black" stroke-miterlimit="10"/>
<path d="M258.614 263.997V256.867L252.032 262.899L249.84 243.978L232.563 256.32L230.368 248.093L224.336 254.125V244.253L216.934 253.027L210.352 233.283L202.125 253.59L190.061 238.496L181.011 259.062V249.19L175.802 258.787L172.237 245.898L162.365 261.254L147.283 242.333L142.621 260.979L138.234 255.77L134.941 268.685H261.632L262.726 263.722L258.614 263.997Z" fill="#F4F4F4"/>
<path d="M127.802 268.685H269.869" stroke="black" stroke-miterlimit="10"/>
<path d="M225.674 137.616L194.445 135.562L186.355 167.462L167.786 268.685H193.062L190.118 263.411L225.674 137.616Z" fill="#EDEEEF"/>
<path d="M229.738 263.101L231.274 205.501L206.698 210.109L212.403 268.685H233.408L229.738 263.101Z" fill="#EDEEEF"/>
<path d="M222.205 207.203L206.698 210.109L207.382 217.149C220.288 215.408 229.174 211.942 229.174 211.942L222.205 207.203Z" fill="black"/>
<path d="M191.402 186.301C191.402 186.301 187.491 187.507 182.317 189.475L177.322 216.717C186.429 218.378 195.302 218.371 203.056 217.632L208.611 197.981L191.402 186.301Z" fill="black"/>
<path d="M191.402 138.24L160.64 202.019C160.64 202.019 197.12 221.219 233.405 210.851V144.806L191.402 138.24Z" fill="#DF0000"/>
<path d="M202.845 74.6592V79.392C202.845 81.1699 203.441 82.8965 204.538 84.2957C205.635 85.6949 207.169 86.6859 208.896 87.1104L216.422 88.96V70.4608L210.163 68.9216C209.293 68.7076 208.386 68.6942 207.51 68.8826C206.634 69.071 205.812 69.4561 205.107 70.0089C204.402 70.5617 203.832 71.2677 203.44 72.0733C203.048 72.879 202.845 73.7632 202.845 74.6592Z" fill="#EDEEEF"/>
<path d="M202.845 79.392C202.845 81.1699 203.441 82.8965 204.538 84.2957C205.635 85.6949 207.169 86.6859 208.896 87.1104L216.422 88.96" stroke="black" stroke-miterlimit="10"/>
<path d="M210.515 78.4512C210.715 78.4512 210.877 78.2893 210.877 78.0896C210.877 77.8899 210.715 77.728 210.515 77.728C210.315 77.728 210.154 77.8899 210.154 78.0896C210.154 78.2893 210.315 78.4512 210.515 78.4512Z" fill="black"/>
<path d="M204.938 78.4512C205.137 78.4512 205.299 78.2893 205.299 78.0896C205.299 77.8899 205.137 77.728 204.938 77.728C204.738 77.728 204.576 77.8899 204.576 78.0896C204.576 78.2893 204.738 78.4512 204.938 78.4512Z" fill="black"/>
<path d="M206.573 80.256V74.6592H203.77" stroke="black" stroke-miterlimit="10"/>
<path d="M211.2 74.6592H208.397" stroke="black" stroke-miterlimit="10"/>
<path d="M215.53 77.5264V79.472C216.033 79.4711 216.516 79.2705 216.872 78.9141C217.227 78.5577 217.427 78.0747 217.427 77.5712C217.427 77.5136 217.427 77.456 217.427 77.3984C217.312 76.2208 215.53 76.3456 215.53 77.5264Z" fill="#EDEEEF"/>
<path d="M215.53 79.472C216.033 79.4711 216.516 79.2705 216.872 78.9141C217.227 78.5577 217.427 78.0747 217.427 77.5712" stroke="black" stroke-miterlimit="10"/>
<path d="M208.106 80.9088C208.222 81.0261 208.361 81.1191 208.513 81.1826C208.666 81.2461 208.83 81.2788 208.995 81.2788C209.161 81.2788 209.324 81.2461 209.477 81.1826C209.63 81.1191 209.768 81.0261 209.885 80.9088" stroke="#DF0000" stroke-width="1.5" stroke-miterlimit="10"/>
<path d="M206.573 80.2592L207.802 80.5632" stroke="black" stroke-miterlimit="10" stroke-linecap="round"/>
<path d="M205.302 86.08L205.085 86.1792C204.398 86.4921 203.643 86.6246 202.891 86.5642C202.139 86.5039 201.414 86.2526 200.786 85.8342C200.158 85.4157 199.648 84.844 199.302 84.1731C198.957 83.5021 198.788 82.7542 198.813 82C199.059 74.9408 200.733 65.1488 208.093 65.8496C208.093 65.8496 215.6 64.128 218.608 71.04C221.616 77.952 217.926 81.28 216.41 82.048" stroke="black" stroke-miterlimit="10"/>
<path d="M202.685 76.576C202.685 76.576 208.352 75.5808 208.995 71.776C208.995 71.776 211.805 76.4768 215.715 76.9312" stroke="black" stroke-miterlimit="10"/>
<path d="M191.402 108.589V138.24L233.408 148.566V115.542C233.408 109.852 231.5 104.326 227.989 99.8474C224.478 95.369 219.568 92.197 214.042 90.8384C211.35 90.1771 208.544 90.1365 205.834 90.7196C203.125 91.3027 200.583 92.4944 198.402 94.2044C196.221 95.9144 194.457 98.098 193.245 100.59C192.032 103.082 191.402 105.817 191.402 108.589Z" fill="#EDEEEF"/>
<path d="M160.64 202.019C160.64 202.019 197.12 221.219 233.405 210.851" stroke="black" stroke-miterlimit="10"/>
<path d="M222.134 94.4C222.134 94.4 242.717 108.8 242.794 130.24C242.906 161.389 194.531 133.312 192.966 128.192L191.402 123.072C191.402 123.072 184.938 120.413 186.474 119.437C188.01 118.461 233.408 128.109 233.408 128.109" stroke="black" stroke-miterlimit="10"/>
<path d="M198.81 94.4C198.81 94.4 186.986 102.832 182.122 124.848C182.122 124.848 174.186 113.856 171.37 109.622C168.554 105.389 166.25 108.208 166.25 108.208C166.25 108.208 162.973 103.36 160.64 105.405C158.307 107.45 164.541 142.576 187.283 146.774" stroke="black" stroke-miterlimit="10"/>
<path d="M189.222 122.112L141.59 98.6656" stroke="black" stroke-miterlimit="10"/>
<path d="M68.3424 78.2592H123.843V133.76H68.3424V78.2592Z" fill="#DF0000"/>
<path d="M94.8448 92.1728H97.344V119.843H94.8448V92.1728Z" fill="white"/>
<path d="M109.93 104.762V107.261H82.2592V104.762H109.93Z" fill="white"/>
</svg>
