<svg width="320" height="320" viewBox="0 0 320 320" fill="none" xmlns="http://www.w3.org/2000/svg">
<path d="M172.422 177.005C172.422 177.005 195.347 222.55 176.96 250.15C160.346 275.072 155.52 280.016 155.52 280.016V286.63L137.6 264.976L153.104 221.92L142.179 187.002" fill="#EDEEEF"/>
<path d="M137.594 264.973L153.101 221.92L142.179 187.002" stroke="black" stroke-miterlimit="10"/>
<path d="M109.12 178.774V300.48H140.944L137.6 294.506C137.6 294.506 144.742 235.066 146.774 186.134" fill="#EDEEEF"/>
<path d="M137.6 294.506C137.6 294.506 144.742 235.066 146.774 186.134" stroke="black" stroke-miterlimit="10"/>
<path d="M160.595 137.424L108.083 150.333V199.04L176.634 182.4L160.595 137.424Z" fill="#DF0000"/>
<path d="M108.083 199.04L176.634 182.4" stroke="black" stroke-miterlimit="10"/>
<path d="M151.382 57.9488V63.8624C151.384 66.0851 150.64 68.2441 149.268 69.993C147.896 71.7419 145.977 72.9795 143.818 73.5072L134.4 75.8208V52.6976L142.227 50.7776C143.315 50.5109 144.449 50.4948 145.544 50.7308C146.639 50.9667 147.665 51.4484 148.547 52.1395C149.428 52.8306 150.141 53.7129 150.631 54.7199C151.121 55.7269 151.376 56.8321 151.376 57.952L151.382 57.9488Z" fill="#EDEEEF"/>
<path d="M151.382 63.8624C151.384 66.0851 150.64 68.2441 149.268 69.993C147.896 71.7419 145.977 72.9795 143.818 73.5072L134.4 75.8208" stroke="black" stroke-miterlimit="10"/>
<path d="M141.792 62.688C142.043 62.688 142.246 62.4845 142.246 62.2336C142.246 61.9826 142.043 61.7792 141.792 61.7792C141.541 61.7792 141.338 61.9826 141.338 62.2336C141.338 62.4845 141.541 62.688 141.792 62.688Z" fill="black"/>
<path d="M148.765 62.688C149.016 62.688 149.219 62.4845 149.219 62.2336C149.219 61.9826 149.016 61.7792 148.765 61.7792C148.514 61.7792 148.31 61.9826 148.31 62.2336C148.31 62.4845 148.514 62.688 148.765 62.688Z" fill="black"/>
<path d="M146.72 64.9408V57.9488H150.224" stroke="black" stroke-miterlimit="10"/>
<path d="M140.938 57.9488H144.442" stroke="black" stroke-miterlimit="10"/>
<path d="M135.526 61.5328V63.9616C134.897 63.9616 134.293 63.7114 133.847 63.2661C133.402 62.8209 133.152 62.2169 133.152 61.5872C133.152 61.5136 133.152 61.4432 133.152 61.3728C133.296 59.8976 135.526 60.0512 135.526 61.5328Z" fill="#EDEEEF"/>
<path d="M135.526 63.9616C134.897 63.9616 134.293 63.7115 133.847 63.2662C133.402 62.8209 133.152 62.2169 133.152 61.5872" stroke="black" stroke-miterlimit="10"/>
<path d="M144.803 65.76C144.508 66.0535 144.109 66.2183 143.693 66.2183C143.277 66.2183 142.877 66.0535 142.582 65.76" stroke="#DF0000" stroke-miterlimit="10"/>
<path d="M146.72 64.9472L145.187 65.3248" stroke="black" stroke-miterlimit="10" stroke-linecap="round"/>
<path d="M135.526 60.3424C135.526 60.3424 139.728 57.28 140.259 54.5056C140.259 54.5056 148.688 58.1344 153.594 54.9344" stroke="black" stroke-miterlimit="10"/>
<path d="M134.339 67.68C134.339 67.68 126.074 65.12 126.154 58.48C126.234 51.84 135.526 49.04 135.526 49.04C135.526 49.04 144.874 37.28 152.314 45.68C159.754 54.08 153.034 66.8 155.914 69.8432C158.794 72.8864 151.578 76.368 145.187 73.0624" stroke="black" stroke-miterlimit="10"/>
<path d="M160.595 100.358V137.427L108.083 150.333V109.053C108.084 101.94 110.469 95.0322 114.857 89.4343C119.245 83.8364 125.384 79.8713 132.291 78.1728C135.656 77.3461 139.164 77.2952 142.551 78.0241C145.939 78.753 149.116 80.2426 151.842 82.3801C154.569 84.5177 156.774 87.2473 158.29 90.3625C159.807 93.4777 160.595 96.8969 160.595 100.362V100.358Z" fill="#EDEEEF"/>
<path d="M160.595 137.427L108.083 150.333" stroke="black" stroke-miterlimit="10"/>
<path d="M110.563 96.7393C110.563 96.7393 93.008 121.494 102.4 147.734C111.792 173.974 151.389 164.374 151.389 164.374L154.88 158.826L160.602 157.334V154.986L124.586 140.906L134.4 104.64" stroke="black" stroke-miterlimit="10"/>
<path d="M133.101 109.466L124.579 140.906L142.358 147.856C125.056 139.722 133.088 109.51 133.101 109.466Z" fill="black"/>
<path d="M154.88 85.2288L177.92 106.134C177.92 106.134 203.52 86.9344 210.134 85.2288C216.749 83.5232 220.374 85.2288 220.374 85.2288L219.52 88.8544L214.826 89.0656C214.826 89.0656 214.4 96.32 209.488 97.6C209.488 97.6 189.779 145.174 160.595 127.894" stroke="black" stroke-miterlimit="10"/>
</svg>
