<svg width="40" height="40" viewBox="0 0 40 40" fill="none" xmlns="http://www.w3.org/2000/svg">
<path d="M39 19.9934C39 30.4566 30.4681 38.9997 20.0062 38.9997C9.54357 38.9997 1 30.4558 1 19.9934C1 9.53174 9.54272 1 20.0062 1C30.469 1 39 9.53093 39 19.9934Z" stroke="black" stroke-width="2"/>
<path d="M29.5065 10.0481L8.20405 18.2644C6.75022 18.8478 6.75878 19.6587 7.93906 20.0202L13.252 21.6784L15.2848 27.9111C15.5319 28.5933 15.4101 28.8638 16.1264 28.8638C16.6793 28.8638 16.9245 28.6117 17.2324 28.3109C17.4281 28.1193 18.5907 26.9891 19.8885 25.7273L25.4148 29.8105C26.4318 30.3716 27.1661 30.0808 27.4193 28.8659L31.0469 11.771C31.4185 10.2819 30.4796 9.60644 29.5065 10.0481ZM14.0858 21.2975L26.061 13.7423C26.659 13.3797 27.2071 13.5746 26.7569 13.974L16.503 23.2258L16.1038 27.484L14.0858 21.2975Z" fill="black"/>
</svg>
